<svg version="1.0" xmlns="http://www.w3.org/2000/svg"
 width="200.000000pt" height="200.000000pt" viewBox="0 0 200.000000 200.000000"
 preserveAspectRatio="xMidYMid meet">

<g transform="translate(0.000000,200.000000) scale(0.100000,-0.100000)"
fill="#000000" stroke="none">
<path d="M895 1994 c-121 -18 -205 -42 -205 -58 0 -15 -22 -27 -55 -33 -38 -5
-50 -9 -60 -15 -5 -3 -25 -9 -44 -13 -20 -4 -35 -14 -38 -26 -3 -10 -14 -19
-24 -19 -11 0 -19 -5 -19 -10 0 -6 -5 -9 -11 -8 -6 2 -14 -3 -17 -11 -3 -8 0
-11 7 -7 6 4 11 2 11 -5 0 -7 -11 -10 -31 -7 -27 4 -39 -4 -103 -66 -69 -68
-166 -193 -166 -214 0 -5 9 -12 21 -15 12 -3 18 -10 15 -16 -4 -6 -15 -7 -30
-1 -20 7 -25 3 -46 -38 -54 -112 -100 -295 -100 -401 l0 -46 73 -31 c77 -33
90 -52 63 -89 -12 -17 -19 -18 -53 -9 -21 6 -46 15 -57 19 -17 8 -18 5 -11
-41 12 -80 54 -203 101 -294 160 -313 500 -528 842 -533 82 -2 105 1 112 13 5
8 10 11 10 5 0 -5 9 5 20 23 11 17 28 32 38 32 20 0 54 28 78 66 9 13 45 40
79 60 35 19 66 41 69 49 6 17 -5 20 -21 4 -6 -6 -30 -12 -53 -13 -25 -2 -46
-10 -51 -19 -7 -12 -17 -13 -51 -5 -24 5 -79 8 -123 6 -79 -3 -80 -3 -80 22 0
19 6 25 33 31 24 5 35 3 39 -7 8 -20 23 -17 23 5 0 17 11 20 103 26 103 7 104
7 99 31 -3 19 -11 24 -33 24 -19 0 -29 5 -29 15 0 10 10 15 29 15 26 0 30 4
33 33 4 42 22 42 26 0 3 -30 6 -33 38 -33 19 0 34 -4 34 -10 0 -5 -10 -10 -22
-10 -34 0 -50 -14 -46 -40 3 -22 5 -22 128 -21 116 2 129 0 175 -24 28 -13 51
-25 53 -25 1 0 2 16 2 35 0 33 2 35 33 33 30 -3 32 -1 35 30 3 28 7 33 23 29
16 -4 29 8 63 61 25 38 41 73 38 84 -5 21 -12 22 -47 6 -37 -17 -56 4 -23 26
32 21 88 32 88 17 0 -6 5 -11 10 -11 6 0 10 37 10 91 0 56 4 88 10 84 5 -3 1
14 -10 37 -26 57 -26 72 1 65 17 -4 19 -3 10 6 -8 8 -11 94 -11 292 l0 281
-52 88 c-121 202 -325 364 -548 434 -126 40 -116 42 -204 -45 -53 -53 -80 -73
-84 -64 -3 9 22 40 62 79 37 36 65 67 62 69 -6 6 -207 12 -241 7z m-155 -84
c0 -5 -4 -10 -9 -10 -6 0 -13 5 -16 10 -3 6 1 10 9 10 9 0 16 -4 16 -10z m681
-126 c-8 -18 -15 -24 -22 -17 -6 6 -6 19 1 38 8 21 14 25 22 17 9 -9 8 -18 -1
-38z m-56 6 c21 -23 12 -39 -13 -24 -19 12 -29 44 -14 44 5 0 17 -9 27 -20z
m111 -49 c-4 -6 -18 -11 -32 -11 -31 0 -32 27 -1 32 26 5 42 -6 33 -21z
m-1074 7 c-7 -7 -12 -18 -12 -25 0 -7 -11 -37 -25 -65 -22 -45 -25 -61 -19
-113 l6 -60 -21 20 c-32 31 -20 126 26 200 19 30 40 55 46 55 8 0 7 -4 -1 -12z
m948 -28 c-22 -14 -50 -12 -50 4 0 8 10 16 23 18 29 5 47 -10 27 -22z m94 -22
c24 -34 1 -51 -24 -18 -11 14 -20 28 -20 33 0 16 30 6 44 -15z m-58 -10 c-3
-13 -6 -26 -6 -30 0 -5 -7 -8 -15 -8 -17 0 -18 4 -9 38 4 12 13 22 21 22 11 0
14 -6 9 -22z m-402 -38 c20 -22 36 -48 36 -57 0 -9 3 -14 6 -10 4 3 -1 24 -10
47 -13 33 -13 40 -2 40 7 0 27 3 44 6 27 6 33 2 57 -34 l26 -40 -21 -41 c-15
-31 -26 -41 -45 -41 -14 0 -25 -4 -25 -10 0 -13 23 -100 50 -189 30 -98 24
-229 -15 -341 -15 -41 -29 -84 -32 -96 -5 -24 27 -106 70 -176 25 -40 29 -55
25 -95 -6 -60 -46 -146 -81 -173 -23 -18 -30 -19 -49 -8 -34 19 -87 18 -93 -1
-3 -9 -14 -17 -25 -18 -26 -2 -25 5 2 34 14 15 21 34 20 52 -1 16 6 38 19 52
19 22 19 24 2 36 -51 35 -59 63 -19 63 33 0 69 46 59 74 -4 12 -7 31 -8 43 -1
13 -5 26 -8 30 -11 10 -8 18 13 43 19 22 18 46 -1 34 -6 -3 -17 3 -25 15 -8
12 -21 21 -27 21 -7 0 -18 9 -25 20 -8 14 -23 20 -47 20 -24 0 -35 5 -35 15 0
8 -9 19 -19 24 -10 6 -24 24 -29 41 -6 16 -18 30 -26 30 -8 0 -26 14 -39 31
-21 27 -27 30 -45 20 -11 -6 -25 -25 -31 -42 -13 -39 -14 -62 -2 -55 5 3 12
-5 15 -19 4 -17 13 -25 29 -25 28 0 51 -15 44 -28 -4 -5 2 -17 13 -27 34 -30
23 -34 -42 -14 -75 22 -85 16 -69 -43 7 -24 13 -66 14 -93 2 -43 -1 -50 -15
-47 -10 2 -18 -2 -18 -9 0 -6 -6 -25 -14 -42 -26 -62 -38 -128 -25 -143 10
-12 14 -11 26 6 10 14 19 18 26 12 28 -22 76 -24 104 -4 20 14 34 17 51 11 22
-8 31 -39 12 -39 -20 0 -92 -52 -97 -70 -3 -11 -17 -22 -32 -25 -40 -8 -117
-9 -131 0 -9 5 -10 1 -5 -14 12 -38 -2 -71 -30 -71 -28 0 -61 41 -51 65 6 17
-2 19 -22 6 -10 -6 -10 -10 3 -21 22 -18 19 -67 -4 -80 -25 -13 -27 -13 -45 6
-9 8 -16 28 -16 44 0 28 -2 29 -26 19 -15 -5 -29 -7 -31 -5 -10 9 7 24 34 30
58 14 83 28 83 49 0 11 17 47 38 81 82 131 131 232 138 286 10 67 9 69 -27
152 -16 36 -29 78 -29 92 0 14 -4 26 -10 26 -5 0 -10 15 -10 34 0 19 -5 38
-12 42 -7 4 -8 3 -4 -4 4 -7 2 -12 -4 -12 -7 0 -10 16 -6 46 6 61 -7 97 -34
90 -11 -3 -30 -9 -42 -12 -20 -6 -21 -5 -9 10 12 14 11 20 -8 39 -25 28 -28
45 -4 26 15 -12 16 -12 10 5 -9 23 23 94 56 123 12 11 38 29 57 39 19 10 40
24 48 31 13 12 42 7 42 -7 0 -5 2 -14 5 -22 3 -7 -5 -17 -17 -23 -13 -6 -25
-19 -27 -30 -3 -17 -1 -18 13 -5 10 7 28 15 41 16 37 4 115 41 121 58 10 25
-37 75 -63 69 -27 -6 -29 4 -6 29 10 11 30 18 54 18 21 0 49 4 63 9 17 7 26 7
29 -2 2 -8 13 -5 33 8 68 47 92 46 138 -5z m366 -135 c12 -14 15 -14 31 1 24
21 38 10 21 -16 -10 -16 -10 -24 0 -40 16 -25 3 -37 -19 -17 -16 13 -21 14
-37 2 -26 -20 -41 -7 -20 16 16 18 16 20 1 37 -10 10 -14 22 -10 25 10 11 19
8 33 -8z m414 -14 c4 -5 2 -21 -4 -35 -8 -22 -7 -26 10 -26 10 0 22 -5 25 -10
8 -13 -94 -132 -109 -127 -12 5 -12 6 -1 50 6 23 4 27 -14 27 -33 0 -25 27 25
80 47 51 58 57 68 41z m-1408 -99 c-10 -9 -15 2 -21 39 l-5 34 15 -34 c9 -18
14 -36 11 -39z m-93 -39 c2 -5 -3 -30 -12 -58 -15 -48 -18 -51 -70 -67 -30
-10 -57 -16 -59 -13 -8 7 20 105 31 113 11 6 80 28 99 31 4 1 9 -2 11 -6z
m1253 -64 c10 -17 -13 -36 -27 -22 -12 12 -4 33 11 33 5 0 12 -5 16 -11z
m-1046 -86 c0 -3 -6 -3 -14 0 -9 4 -16 -1 -18 -11 -3 -10 -6 -3 -9 14 -5 31
-5 32 18 17 13 -8 23 -18 23 -20z m950 -14 c0 -15 -51 -79 -63 -79 -6 0 -21
10 -34 22 l-23 21 -23 -21 c-29 -28 -31 -28 -73 6 -52 42 -39 61 16 22 27 -19
27 -19 45 0 23 26 47 25 70 0 l19 -21 24 31 c24 30 42 39 42 19z m-978 -44 c3
-13 1 -22 -3 -19 -9 5 -13 44 -5 44 2 0 6 -11 8 -25z m52 -61 c21 -29 8 -56
-14 -29 -24 28 -42 18 -38 -22 3 -35 0 -38 -30 -47 -30 -8 -32 -12 -30 -45 l3
-36 -47 -3 c-53 -3 -67 15 -15 20 29 3 32 6 32 38 0 30 4 35 33 44 31 8 33 12
30 45 -3 31 0 36 20 39 12 2 22 8 22 13 0 16 15 9 34 -17z m-284 -14 c0 -5 -4
-10 -10 -10 -5 0 -10 5 -10 10 0 6 5 10 10 10 6 0 10 -4 10 -10z m1504 -22
c22 -6 45 -15 49 -18 12 -10 -22 -120 -37 -120 -7 0 -34 7 -60 16 -47 16 -48
17 -41 51 9 52 23 83 36 83 6 0 30 -5 53 -12z m-385 -102 c7 -8 23 -17 36 -20
34 -9 48 -38 34 -69 -14 -30 -48 -47 -95 -47 -31 0 -37 4 -50 36 -16 37 -12
77 8 101 14 17 53 16 67 -1z m-984 -237 c6 -26 10 -30 31 -25 30 8 30 -2 4
-80 -26 -75 -36 -84 -44 -39 -7 33 -10 36 -32 31 -16 -4 -24 -2 -24 7 0 23 42
137 50 137 5 0 11 -14 15 -31z m555 -9 c0 -5 -7 -10 -15 -10 -8 0 -15 5 -15
10 0 6 7 10 15 10 8 0 15 -4 15 -10z m750 -42 c0 -7 -14 -34 -30 -60 l-30 -48
-60 0 c-68 0 -71 6 -39 60 30 51 47 60 106 60 36 0 53 -4 53 -12z m-392 -40
c-5 -13 -98 -22 -98 -9 0 16 14 21 58 21 29 0 42 -4 40 -12z m-374 -27 c8 -12
-32 -61 -49 -61 -21 0 -35 31 -24 52 10 19 63 25 73 9z m7 -291 c31 -17 26
-81 -11 -120 l-30 -32 -42 24 c-78 42 -77 108 0 119 23 3 45 8 48 12 9 9 12 9
35 -3z m253 -119 c3 -5 -28 -39 -68 -75 -41 -37 -77 -62 -80 -57 -6 9 122 140
136 141 4 0 9 -4 12 -9z"/>
<path d="M1044 1634 c3 -9 6 -18 6 -20 0 -2 11 -4 25 -4 23 0 24 2 15 20 -13
24 -55 28 -46 4z"/>
<path d="M936 1612 c-5 -9 30 -59 37 -52 3 3 3 17 0 33 -5 25 -26 37 -37 19z"/>
<path d="M1070 1583 c-16 -6 -30 -23 -30 -36 0 -11 43 3 52 17 16 24 8 30 -22
19z"/>
<path d="M915 1520 c-3 -6 4 -10 17 -10 13 -1 41 -3 63 -6 35 -6 38 -5 26 10
-15 18 -96 23 -106 6z"/>
<path d="M704 1474 c-27 -13 -56 -32 -65 -43 -8 -10 -24 -20 -35 -23 -14 -2
-20 -13 -22 -42 l-3 -40 33 38 c32 37 129 106 148 106 15 0 21 18 7 23 -7 3
-36 -6 -63 -19z"/>
<path d="M981 1417 c-19 -7 -41 -22 -49 -34 -14 -22 -13 -23 11 -23 16 0 31 8
37 20 6 11 15 20 21 20 6 0 7 -4 4 -10 -7 -11 6 -13 29 -4 12 5 13 10 5 25
-11 22 -12 22 -58 6z"/>
<path d="M815 1380 c-3 -6 -3 -20 0 -31 7 -21 6 -21 -16 -5 -34 23 -53 21 -39
-4 6 -11 18 -20 28 -20 10 0 2 -8 -17 -17 -28 -14 -31 -18 -16 -23 13 -5 15
-9 7 -14 -20 -12 -13 -27 11 -22 12 3 33 7 47 10 17 3 34 20 49 46 12 22 26
40 32 40 5 0 9 5 9 10 0 6 -8 10 -18 10 -10 0 -27 7 -38 15 -23 17 -31 18 -39
5z"/>
<path d="M670 1353 c-14 -3 -36 -16 -51 -29 -19 -18 -28 -21 -37 -12 -14 14
-32 -27 -32 -72 0 -33 14 -40 55 -27 40 13 45 15 85 36 31 17 34 22 35 65 0
48 0 49 -55 39z"/>
<path d="M953 1327 c5 -15 37 -22 37 -9 0 5 -9 12 -21 15 -13 3 -19 1 -16 -6z"/>
<path d="M845 1248 c-43 -25 -48 -73 -10 -108 14 -13 25 -28 25 -33 0 -5 -11
-18 -25 -29 -28 -22 -32 -38 -10 -38 8 0 15 -8 15 -17 0 -14 9 -18 35 -19 31
0 34 2 29 22 -6 25 18 44 57 44 12 0 19 3 16 7 -4 3 -22 6 -41 5 l-33 -1 16
34 c21 45 47 52 99 25 43 -22 54 -40 26 -40 -8 0 -12 -5 -8 -11 10 -17 36 14
28 34 -3 9 -12 17 -19 17 -6 0 -19 8 -28 18 -13 14 -14 21 -5 30 20 20 0 26
-26 8 -14 -8 -31 -13 -39 -10 -8 3 -32 -2 -53 -11 -30 -12 -39 -13 -46 -3 -17
28 1 58 35 58 10 0 17 5 15 13 -6 17 -29 19 -53 5z"/>
<path d="M1034 696 c-8 -22 3 -49 19 -43 6 2 12 14 12 27 0 27 -22 39 -31 16z"/>
<path d="M1001 631 c-10 -17 -9 -21 3 -21 20 0 31 19 18 32 -7 7 -14 3 -21
-11z"/>
<path d="M460 385 c0 -27 17 -42 31 -28 12 12 2 40 -17 47 -10 4 -14 -2 -14
-19z"/>
<path d="M372 348 c2 -12 10 -23 18 -23 22 0 19 39 -3 43 -15 3 -18 -1 -15
-20z"/>
<path d="M1705 1420 c-3 -5 -1 -10 4 -10 6 0 11 5 11 10 0 6 -2 10 -4 10 -3 0
-8 -4 -11 -10z"/>
<path d="M1730 1399 c0 -5 5 -7 10 -4 6 3 10 8 10 11 0 2 -4 4 -10 4 -5 0 -10
-5 -10 -11z"/>
<path d="M220 1329 c0 -5 5 -7 10 -4 6 3 10 8 10 11 0 2 -4 4 -10 4 -5 0 -10
-5 -10 -11z"/>
<path d="M160 1308 c0 -7 -3 -23 -6 -35 -6 -22 -5 -22 27 -11 44 14 42 13 29
37 -12 23 -50 29 -50 9z"/>
<path d="M1665 1015 c-3 -8 -7 -21 -9 -29 -4 -13 21 -26 50 -26 18 0 28 51 12
61 -21 14 -48 10 -53 -6z"/>
<path d="M1273 924 c-3 -8 -1 -29 4 -47 8 -28 13 -32 39 -29 16 2 38 12 49 23
17 17 18 21 5 29 -8 5 -21 8 -27 5 -7 -2 -17 5 -23 15 -13 24 -38 26 -47 4z"/>
<path d="M317 661 c-4 -16 0 -21 14 -21 10 0 22 0 27 -1 4 0 8 7 10 15 2 11
-2 14 -13 10 -9 -4 -20 -1 -25 5 -5 9 -9 6 -13 -8z"/>
<path d="M1540 631 c0 -17 27 -49 33 -40 2 2 11 16 20 32 l17 27 -35 0 c-28 0
-35 -4 -35 -19z"/>
<path d="M840 275 c-10 -12 -16 -13 -27 -4 -10 9 -17 9 -24 2 -17 -17 -7 -44
24 -67 l29 -21 24 29 c27 31 29 69 3 74 -9 1 -22 -4 -29 -13z"/>
<path d="M642 1933 c-6 -2 -10 -9 -7 -13 7 -11 35 -2 35 11 0 10 -8 10 -28 2z"/>
<path d="M0 936 c0 -19 10 -28 49 -45 59 -25 67 -26 74 -6 7 16 1 21 -66 52
-60 28 -57 28 -57 -1z"/>
<path d="M1364 155 c-10 -8 -29 -15 -42 -15 -33 0 -64 -19 -58 -35 3 -8 -3
-24 -14 -37 -17 -21 -19 -21 -25 -5 -4 9 -13 17 -19 17 -15 0 -99 -61 -92 -67
5 -5 77 9 149 28 22 6 37 16 37 25 0 11 6 13 20 9 13 -4 20 -2 20 7 0 8 14 22
30 31 17 10 30 27 30 38 0 23 -9 24 -36 4z"/>
</g>
</svg>
